{
  "accessors": [
    {
      "bufferView": 2,
      "componentType": 5126,
      "count": 2824,
      "max": [
        23.441631317138672,
        18.40001678466797,
        -15.834991455078125
      ],
      "min": [
        -23.40531349182129,
        -26.836109161376953,
        -37.638267517089844
      ],
      "type": "VEC3"
    },
    {
      "bufferView": 2,
      "byteOffset": 33888,
      "componentType": 5126,
      "count": 2824,
      "type": "VEC3"
    },
    {
      "bufferView": 3,
      "componentType": 5126,
      "count": 2824,
      "type": "VEC4"
    },
    {
      "bufferView": 1,
      "componentType": 5126,
      "count": 2824,
      "type": "VEC2"
    },
    {
      "bufferView": 0,
      "componentType": 5125,
      "count": 13572,
      "type": "SCALAR"
    },
    {
      "bufferView": 2,
      "byteOffset": 67776,
      "componentType": 5126,
      "count": 1523,
      "max": [
        23.400005340576172,
        18.399999618530273,
        0.953357994556427
      ],
      "min": [
        -23.400005340576172,
        -26.836109161376953,
        -15.835039138793945
      ],
      "type": "VEC3"
    },
    {
      "bufferView": 2,
      "byteOffset": 86052,
      "componentType": 5126,
      "count": 1523,
      "type": "VEC3"
    },
    {
      "bufferView": 3,
      "byteOffset": 45184,
      "componentType": 5126,
      "count": 1523,
      "type": "VEC4"
    },
    {
      "bufferView": 1,
      "byteOffset": 22592,
      "componentType": 5126,
      "count": 1523,
      "type": "VEC2"
    },
    {
      "bufferView": 0,
      "byteOffset": 54288,
      "componentType": 5125,
      "count": 7770,
      "type": "SCALAR"
    },
    {
      "bufferView": 2,
      "byteOffset": 104328,
      "componentType": 5126,
      "count": 343,
      "max": [
        -2.163572072982788,
        -21.03217887878418,
        1.0668220520019531
      ],
      "min": [
        -12.043302536010742,
        -22.288633346557617,
        0.5914379954338074
      ],
      "type": "VEC3"
    },
    {
      "bufferView": 2,
      "byteOffset": 108444,
      "componentType": 5126,
      "count": 343,
      "type": "VEC3"
    },
    {
      "bufferView": 3,
      "byteOffset": 69552,
      "componentType": 5126,
      "count": 343,
      "type": "VEC4"
    },
    {
      "bufferView": 1,
      "byteOffset": 34776,
      "componentType": 5126,
      "count": 343,
      "type": "VEC2"
    },
    {
      "bufferView": 0,
      "byteOffset": 85368,
      "componentType": 5125,
      "count": 1764,
      "type": "SCALAR"
    },
    {
      "bufferView": 2,
      "byteOffset": 112560,
      "componentType": 5126,
      "count": 117,
      "max": [
        0.05614800006151199,
        0.04277300089597702,
        0.41982799768447876
      ],
      "min": [
        -0.05614800006151199,
        -0.04277300089597702,
        0.41500699520111084
      ],
      "type": "VEC3"
    },
    {
      "bufferView": 2,
      "byteOffset": 113964,
      "componentType": 5126,
      "count": 117,
      "type": "VEC3"
    },
    {
      "bufferView": 3,
      "byteOffset": 75040,
      "componentType": 5126,
      "count": 117,
      "type": "VEC4"
    },
    {
      "bufferView": 1,
      "byteOffset": 37520,
      "componentType": 5126,
      "count": 117,
      "type": "VEC2"
    },
    {
      "bufferView": 0,
      "byteOffset": 92424,
      "componentType": 5125,
      "count": 576,
      "type": "SCALAR"
    },
    {
      "bufferView": 2,
      "byteOffset": 115368,
      "componentType": 5126,
      "count": 305,
      "max": [
        1.4265589714050293,
        1.426558017730713,
        0.18627899885177612
      ],
      "min": [
        -1.4265559911727905,
        -1.4265589714050293,
        -1.3022079467773438
      ],
      "type": "VEC3"
    },
    {
      "bufferView": 2,
      "byteOffset": 119028,
      "componentType": 5126,
      "count": 305,
      "type": "VEC3"
    },
    {
      "bufferView": 3,
      "byteOffset": 76912,
      "componentType": 5126,
      "count": 305,
      "type": "VEC4"
    },
    {
      "bufferView": 1,
      "byteOffset": 38456,
      "componentType": 5126,
      "count": 305,
      "type": "VEC2"
    },
    {
      "bufferView": 0,
      "byteOffset": 94728,
      "componentType": 5125,
      "count": 1776,
      "type": "SCALAR"
    },
    {
      "bufferView": 2,
      "byteOffset": 122688,
      "componentType": 5126,
      "count": 755,
      "max": [
        9.331792831420898,
        5.850001811981201,
        0.7298150062561035
      ],
      "min": [
        4.767033100128174,
        4.748816967010498,
        -0.4457800090312958
      ],
      "type": "VEC3"
    },
    {
      "bufferView": 2,
      "byteOffset": 131748,
      "componentType": 5126,
      "count": 755,
      "type": "VEC3"
    },
    {
      "bufferView": 3,
      "byteOffset": 81792,
      "componentType": 5126,
      "count": 755,
      "type": "VEC4"
    },
    {
      "bufferView": 1,
      "byteOffset": 40896,
      "componentType": 5126,
      "count": 755,
      "type": "VEC2"
    },
    {
      "bufferView": 0,
      "byteOffset": 101832,
      "componentType": 5125,
      "count": 3312,
      "type": "SCALAR"
    },
    {
      "bufferView": 2,
      "byteOffset": 140808,
      "componentType": 5126,
      "count": 755,
      "max": [
        9.331792831420898,
        5.849999904632568,
        0.7298150062561035
      ],
      "min": [
        4.767033100128174,
        4.748816967010498,
        -0.4457800090312958
      ],
      "type": "VEC3"
    },
    {
      "bufferView": 2,
      "byteOffset": 149868,
      "componentType": 5126,
      "count": 755,
      "type": "VEC3"
    },
    {
      "bufferView": 3,
      "byteOffset": 93872,
      "componentType": 5126,
      "count": 755,
      "type": "VEC4"
    },
    {
      "bufferView": 1,
      "byteOffset": 46936,
      "componentType": 5126,
      "count": 755,
      "type": "VEC2"
    },
    {
      "bufferView": 0,
      "byteOffset": 115080,
      "componentType": 5125,
      "count": 3312,
      "type": "SCALAR"
    },
    {
      "bufferView": 2,
      "byteOffset": 158928,
      "componentType": 5126,
      "count": 2057,
      "max": [
        10.862251281738281,
        11.526970863342285,
        -70.93240356445313
      ],
      "min": [
        5.011246204376221,
        -1.5820980072021484,
        -76.7830810546875
      ],
      "type": "VEC3"
    },
    {
      "bufferView": 2,
      "byteOffset": 183612,
      "componentType": 5126,
      "count": 2057,
      "type": "VEC3"
    },
    {
      "bufferView": 3,
      "byteOffset": 105952,
      "componentType": 5126,
      "count": 2057,
      "type": "VEC4"
    },
    {
      "bufferView": 1,
      "byteOffset": 52976,
      "componentType": 5126,
      "count": 2057,
      "type": "VEC2"
    },
    {
      "bufferView": 0,
      "byteOffset": 128328,
      "componentType": 5125,
      "count": 9912,
      "type": "SCALAR"
    },
    {
      "bufferView": 2,
      "byteOffset": 208296,
      "componentType": 5126,
      "count": 2476,
      "max": [
        22.921443939208984,
        15.379081726074219,
        1.9347230195999146
      ],
      "min": [
        -23.18689727783203,
        7.0310211181640625,
        0.40254199504852295
      ],
      "type": "VEC3"
    },
    {
      "bufferView": 2,
      "byteOffset": 238008,
      "componentType": 5126,
      "count": 2476,
      "type": "VEC3"
    },
    {
      "bufferView": 3,
      "byteOffset": 138864,
      "componentType": 5126,
      "count": 2476,
      "type": "VEC4"
    },
    {
      "bufferView": 1,
      "byteOffset": 69432,
      "componentType": 5126,
      "count": 2476,
      "type": "VEC2"
    },
    {
      "bufferView": 0,
      "byteOffset": 167976,
      "componentType": 5125,
      "count": 5817,
      "type": "SCALAR"
    }
  ],
  "asset": {
    "generator": "fab-model-conversion",
    "version": "2.0"
  },
  "bufferViews": [
    {
      "buffer": 0,
      "byteLength": 191244,
      "target": 34963
    },
    {
      "buffer": 0,
      "byteLength": 89240,
      "byteOffset": 191244,
      "byteStride": 8,
      "target": 34962
    },
    {
      "buffer": 0,
      "byteLength": 267720,
      "byteOffset": 280484,
      "byteStride": 12,
      "target": 34962
    },
    {
      "buffer": 0,
      "byteLength": 178480,
      "byteOffset": 548204,
      "byteStride": 16,
      "target": 34962
    }
  ],
  "buffers": [
    {
      "byteLength": 726684,
      "uri": "scene.bin"
    }
  ],
  "images": [
    {
      "uri": "textures/TVback_baseColor.jpeg"
    },
    {
      "uri": "textures/TVback_metallicRoughness.jpeg"
    },
    {
      "uri": "textures/TVback_normal.png"
    },
    {
      "uri": "textures/TVfront_baseColor.jpeg"
    },
    {
      "uri": "textures/TVfront_metallicRoughness.jpeg"
    },
    {
      "uri": "textures/TVfront_normal.png"
    },
    {
      "uri": "textures/TVScreen_baseColor.jpeg"
    },
    {
      "uri": "textures/TVScreen_metallicRoughness.jpeg"
    },
    {
      "uri": "textures/TVScreen_normal.png"
    }
  ],
  "materials": [
    {
      "name": "TVback",
      "normalTexture": {
        "index": 2
      },
      "occlusionTexture": {
        "index": 1
      },
      "pbrMetallicRoughness": {
        "baseColorTexture": {
          "index": 0
        },
        "metallicRoughnessTexture": {
          "index": 1
        }
      }
    },
    {
      "name": "TVfront",
      "normalTexture": {
        "index": 5
      },
      "occlusionTexture": {
        "index": 4
      },
      "pbrMetallicRoughness": {
        "baseColorTexture": {
          "index": 3
        },
        "metallicRoughnessTexture": {
          "index": 4
        }
      }
    },
    {
      "name": "TVScreen",
      "normalTexture": {
        "index": 8
      },
      "occlusionTexture": {
        "index": 7
      },
      "pbrMetallicRoughness": {
        "baseColorTexture": {
          "index": 6
        },
        "metallicRoughnessTexture": {
          "index": 7
        }
      }
    }
  ],
  "meshes": [
    {
      "name": "defaultMaterial",
      "primitives": [
        {
          "attributes": {
            "NORMAL": 1,
            "POSITION": 0,
            "TANGENT": 2,
            "TEXCOORD_0": 3
          },
          "indices": 4,
          "material": 0,
          "mode": 4
        }
      ]
    },
    {
      "name": "defaultMaterial",
      "primitives": [
        {
          "attributes": {
            "NORMAL": 6,
            "POSITION": 5,
            "TANGENT": 7,
            "TEXCOORD_0": 8
          },
          "indices": 9,
          "material": 1,
          "mode": 4
        }
      ]
    },
    {
      "name": "defaultMaterial",
      "primitives": [
        {
          "attributes": {
            "NORMAL": 11,
            "POSITION": 10,
            "TANGENT": 12,
            "TEXCOORD_0": 13
          },
          "indices": 14,
          "material": 1,
          "mode": 4
        }
      ]
    },
    {
      "name": "defaultMaterial",
      "primitives": [
        {
          "attributes": {
            "NORMAL": 16,
            "POSITION": 15,
            "TANGENT": 17,
            "TEXCOORD_0": 18
          },
          "indices": 19,
          "material": 2,
          "mode": 4
        }
      ]
    },
    {
      "name": "defaultMaterial",
      "primitives": [
        {
          "attributes": {
            "NORMAL": 21,
            "POSITION": 20,
            "TANGENT": 22,
            "TEXCOORD_0": 23
          },
          "indices": 24,
          "material": 1,
          "mode": 4
        }
      ]
    },
    {
      "name": "defaultMaterial",
      "primitives": [
        {
          "attributes": {
            "NORMAL": 26,
            "POSITION": 25,
            "TANGENT": 27,
            "TEXCOORD_0": 28
          },
          "indices": 29,
          "material": 1,
          "mode": 4
        }
      ]
    },
    {
      "name": "defaultMaterial",
      "primitives": [
        {
          "attributes": {
            "NORMAL": 31,
            "POSITION": 30,
            "TANGENT": 32,
            "TEXCOORD_0": 33
          },
          "indices": 34,
          "material": 1,
          "mode": 4
        }
      ]
    },
    {
      "name": "defaultMaterial",
      "primitives": [
        {
          "attributes": {
            "NORMAL": 36,
            "POSITION": 35,
            "TANGENT": 37,
            "TEXCOORD_0": 38
          },
          "indices": 39,
          "material": 1,
          "mode": 4
        }
      ]
    },
    {
      "name": "defaultMaterial",
      "primitives": [
        {
          "attributes": {
            "NORMAL": 41,
            "POSITION": 40,
            "TANGENT": 42,
            "TEXCOORD_0": 43
          },
          "indices": 44,
          "material": 1,
          "mode": 4
        }
      ]
    }
  ],
  "nodes": [
    {
      "children": [
        1
      ],
      "matrix": [
        1.0,
        0.0,
        0.0,
        0.0,
        0.0,
        2.220446049250313e-16,
        -1.0,
        0.0,
        0.0,
        1.0,
        2.220446049250313e-16,
        0.0,
        0.0,
        0.0,
        0.0,
        1.0
      ],
      "name": "Sketchfab_model"
    },
    {
      "children": [
        2
      ],
      "matrix": [
        1.0,
        0.0,
        0.0,
        0.0,
        0.0,
        -4.371139006309477e-08,
        0.999999999999999,
        0.0,
        0.0,
        -0.999999999999999,
        -4.371139006309477e-08,
        0.0,
        0.0,
        0.0,
        0.0,
        1.0
      ],
      "name": "Collada visual scene group"
    },
    {
      "children": [
        3,
        5,
        7,
        9,
        11,
        13,
        15,
        17,
        19
      ],
      "matrix": [
        1.0,
        0.0,
        0.0,
        0.0,
        0.0,
        1.0,
        0.0,
        0.0,
        0.0,
        0.0,
        1.0,
        0.0,
        0.0,
        26.836109,
        0.0,
        1.0
      ],
      "name": "tv"
    },
    {
      "children": [
        4
      ],
      "matrix": [
        0.99,
        0.0,
        0.0,
        0.0,
        0.0,
        0.99,
        0.0,
        0.0,
        0.0,
        0.0,
        1.0,
        0.0,
        0.000416,
        -0.04218,
        0.0,
        1.0
      ],
      "name": "rear_section"
    },
    {
      "mesh": 0,
      "name": "defaultMaterial"
    },
    {
      "children": [
        6
      ],
      "name": "Front_section"
    },
    {
      "mesh": 1,
      "name": "defaultMaterial"
    },
    {
      "children": [
        8
      ],
      "name": "Front_buttons"
    },
    {
      "mesh": 2,
      "name": "defaultMaterial"
    },
    {
      "children": [
        10
      ],
      "matrix": [
        398.215851,
        0.0,
        0.0,
        0.0,
        0.0,
        398.215851,
        0.0,
        0.0,
        0.0,
        0.0,
        398.215851,
        0.0,
        0.0,
        0.0,
        -166.617218,
        1.0
      ],
      "name": "Screen"
    },
    {
      "mesh": 3,
      "name": "defaultMaterial"
    },
    {
      "children": [
        12
      ],
      "matrix": [
        0.313086,
        -0.212275,
        0.0,
        0.0,
        0.212275,
        0.313086,
        0.0,
        0.0,
        0.0,
        0.0,
        0.220895,
        0.0,
        3.169335,
        -20.045544,
        -18.300858,
        1.0
      ],
      "name": "Screw"
    },
    {
      "mesh": 4,
      "name": "defaultMaterial"
    },
    {
      "children": [
        14
      ],
      "matrix": [
        1.0,
        0.0,
        0.0,
        0.0,
        0.0,
        1.0,
        0.0,
        0.0,
        0.0,
        0.0,
        1.0,
        0.0,
        0.0,
        -26.836109,
        0.0,
        1.0
      ],
      "name": "AV_front"
    },
    {
      "mesh": 5,
      "name": "defaultMaterial"
    },
    {
      "children": [
        16
      ],
      "matrix": [
        -1.0,
        0.0,
        0.0,
        0.0,
        0.0,
        1.0,
        0.0,
        0.0,
        0.0,
        0.0,
        -1.0,
        0.0,
        11.056853,
        -26.295044,
        -18.64555,
        1.0
      ],
      "name": "AV_back"
    },
    {
      "mesh": 6,
      "name": "defaultMaterial"
    },
    {
      "children": [
        18
      ],
      "matrix": [
        0.0,
        -0.173481,
        0.0,
        0.0,
        0.0,
        0.0,
        -0.158953,
        0.0,
        0.173481,
        0.0,
        0.0,
        0.0,
        26.908335,
        -17.616117,
        -17.22473,
        1.0
      ],
      "name": "Coax_connector"
    },
    {
      "mesh": 7,
      "name": "defaultMaterial"
    },
    {
      "children": [
        20
      ],
      "matrix": [
        0.11,
        0.0,
        0.0,
        0.0,
        0.0,
        0.11,
        0.0,
        0.0,
        0.0,
        0.0,
        0.11,
        0.0,
        0.003279,
        -19.834894,
        0.851798,
        1.0
      ],
      "name": "Logo"
    },
    {
      "mesh": 8,
      "name": "defaultMaterial"
    }
  ],
  "samplers": [
    {
      "magFilter": 9729,
      "minFilter": 9987,
      "wrapS": 10497,
      "wrapT": 10497
    }
  ],
  "scene": 0,
  "scenes": [
    {
      "name": "Sketchfab_Scene",
      "nodes": [
        0
      ]
    }
  ],
  "textures": [
    {
      "sampler": 0,
      "source": 0
    },
    {
      "sampler": 0,
      "source": 1
    },
    {
      "sampler": 0,
      "source": 2
    },
    {
      "sampler": 0,
      "source": 3
    },
    {
      "sampler": 0,
      "source": 4
    },
    {
      "sampler": 0,
      "source": 5
    },
    {
      "sampler": 0,
      "source": 6
    },
    {
      "sampler": 0,
      "source": 7
    },
    {
      "sampler": 0,
      "source": 8
    }
  ]
}
